<svg xmlns="http://www.w3.org/2000/svg" viewBox="0 0 1440 1024"><defs><style>.cls-1{isolation:isolate;}.cls-2{fill:#fdfeff;}.cls-10,.cls-3,.cls-9{opacity:0.15;}.cls-13,.cls-4,.cls-6{fill:#0065c3;}.cls-4,.cls-5{stroke:#e0e0e0;}.cls-10,.cls-11,.cls-4,.cls-5,.cls-7,.cls-8{stroke-miterlimit:10;}.cls-5{fill:#bcbcbc;}.cls-10,.cls-11,.cls-7,.cls-8{fill:none;}.cls-10,.cls-11,.cls-7{stroke:#0065c3;}.cls-7{stroke-width:9px;}.cls-8{stroke:#3d3d3d;stroke-width:1.5px;}.cls-12,.cls-9{fill:#c9c9c9;}.cls-10{stroke-width:55px;}.cls-11{stroke-width:4px;}.cls-13{mix-blend-mode:multiply;}</style></defs><g class="cls-1"><g id="Layer_1" data-name="Layer 1"><rect class="cls-2" x="-0.01" y="-0.02" width="1440.01" height="1024.02"/><g class="cls-3"><path class="cls-4" d="M47.71,39.66a5.59,5.59,0,1,1-5.59-5.59A5.59,5.59,0,0,1,47.71,39.66Z"/><path class="cls-5" d="M95.74,39.66a5.59,5.59,0,1,1-5.59-5.59A5.59,5.59,0,0,1,95.74,39.66Z"/><path class="cls-5" d="M143.77,39.66a5.59,5.59,0,1,1-5.59-5.59A5.59,5.59,0,0,1,143.77,39.66Z"/><path class="cls-5" d="M191.8,39.66a5.59,5.59,0,1,1-5.59-5.59A5.59,5.59,0,0,1,191.8,39.66Z"/><path class="cls-5" d="M47.71,85.21a5.59,5.59,0,1,1-5.59-5.59A5.59,5.59,0,0,1,47.71,85.21Z"/><path class="cls-5" d="M95.74,85.21a5.59,5.59,0,1,1-5.59-5.59A5.59,5.59,0,0,1,95.74,85.21Z"/><path class="cls-5" d="M143.77,85.21a5.59,5.59,0,1,1-5.59-5.59A5.59,5.59,0,0,1,143.77,85.21Z"/><path class="cls-5" d="M191.8,85.21a5.59,5.59,0,1,1-5.59-5.59A5.59,5.59,0,0,1,191.8,85.21Z"/><path class="cls-5" d="M47.71,130.76a5.59,5.59,0,1,1-5.59-5.58A5.59,5.59,0,0,1,47.71,130.76Z"/><path class="cls-5" d="M95.74,130.76a5.59,5.59,0,1,1-5.59-5.58A5.59,5.59,0,0,1,95.74,130.76Z"/><path class="cls-5" d="M143.77,130.76a5.59,5.59,0,1,1-5.59-5.58A5.59,5.59,0,0,1,143.77,130.76Z"/><path class="cls-5" d="M191.8,130.76a5.59,5.59,0,1,1-5.59-5.58A5.59,5.59,0,0,1,191.8,130.76Z"/><path class="cls-5" d="M47.71,176.31a5.59,5.59,0,1,1-5.59-5.58A5.59,5.59,0,0,1,47.71,176.31Z"/><path class="cls-5" d="M95.74,176.31a5.59,5.59,0,1,1-5.59-5.58A5.59,5.59,0,0,1,95.74,176.31Z"/><path class="cls-4" d="M143.77,176.31a5.59,5.59,0,1,1-5.59-5.58A5.59,5.59,0,0,1,143.77,176.31Z"/><path class="cls-5" d="M191.8,176.31a5.59,5.59,0,1,1-5.59-5.58A5.59,5.59,0,0,1,191.8,176.31Z"/></g><g class="cls-3"><path class="cls-6" d="M214.39,160.93,199.29,176l15.37,15.36-14.41,14.41-15.37-15.37-15.1,15.11-13.71-13.71,15.1-15.11-15.45-15.45,14.41-14.41,15.45,15.46,15.11-15.11Z"/></g><g class="cls-3"><path class="cls-7" d="M1418.44,824.64A71.68,71.68,0,1,1,1346.76,753"/><line class="cls-8" x1="1146.17" y1="865.71" x2="1179.85" y2="832.03"/><line class="cls-8" x1="1175.53" y1="865.71" x2="1209.22" y2="832.03"/><line class="cls-8" x1="1204.9" y1="865.71" x2="1238.58" y2="832.03"/><line class="cls-8" x1="1234.26" y1="865.71" x2="1267.94" y2="832.03"/><line class="cls-8" x1="1263.62" y1="865.71" x2="1297.31" y2="832.03"/><line class="cls-8" x1="1292.99" y1="865.71" x2="1326.67" y2="832.03"/><line class="cls-8" x1="1322.35" y1="865.71" x2="1356.03" y2="832.03"/></g><rect class="cls-9" x="1330.77" y="691.28" width="66.81" height="9.81"/><polygon class="cls-9" points="1444.28 671.88 1410.02 701.09 1410.02 691.28 1444.28 662.07 1444.28 671.88"/><circle class="cls-10" cx="-39.91" cy="762.02" r="206.21"/><circle class="cls-9" cx="173.35" cy="824.93" r="81.65"/><g class="cls-3"><circle class="cls-11" cx="1440.23" cy="-0.39" r="117.78"/><circle class="cls-11" cx="1440.23" cy="-0.39" r="158.5" transform="translate(108.68 548.46) rotate(-22.39)"/><path class="cls-11" d="M1440.23,137.75c-76.18,0-138.15-62-138.15-138.14s62-138.14,138.15-138.14,138.14,62,138.14,138.14S1516.4,137.75,1440.23,137.75Z"/><circle class="cls-11" cx="1440.23" cy="-0.39" r="117.78"/><circle class="cls-11" cx="1440.23" cy="-0.39" r="95.94"/><circle class="cls-11" cx="1440.23" cy="-0.39" r="75.93"/></g><g class="cls-3"><rect class="cls-12" x="1332.19" y="181.1" width="76.14" height="10.21"/><rect class="cls-13" x="1295.47" y="181.1" width="21.47" height="10.21"/></g></g></g></svg>