<svg id="Layer_1" data-name="Layer 1" xmlns="http://www.w3.org/2000/svg" xmlns:xlink="http://www.w3.org/1999/xlink" viewBox="0 0 1920 1080"><defs><style>.cls-1,.cls-2,.cls-3{opacity:0.15;}.cls-1{fill:url(#linear-gradient);}.cls-2{fill:#2e70db;}.cls-3{fill:#e8e8e8;}</style><linearGradient id="linear-gradient" x1="1596.67" y1="-1.71" x2="2217.1" y2="-1.71" gradientUnits="userSpaceOnUse"><stop offset="0" stop-color="#0d47a1"/><stop offset="1" stop-color="#512da8"/></linearGradient></defs><path class="cls-1" d="M1838-239S1493-103,1628,45s328,307,488,163,100-335,25-429S1838-239,1838-239Z"/><path class="cls-2" d="M-37.56,716.59a111.62,111.62,0,0,0-17.79,5.87c-51.89,22-324,146.36-201.65,280.54,135,148,387,327,547,183S229,968,154,874C89,792.56,1.71,707.21-37.56,716.59Z"/><path class="cls-3" d="M-119.63,742.88S-252.66,988-103.32,1008s337.4,18.31,360-142-104.34-241.37-193-259.27S-119.63,742.88-119.63,742.88Z"/></svg>