<svg xmlns="http://www.w3.org/2000/svg" xmlns:xlink="http://www.w3.org/1999/xlink" viewBox="0 0 3067.83 3653.65"><defs><style>.cls-1{fill:none;}.cls-2{isolation:isolate;}.cls-3{fill:#f4f7fa;}.cls-4{fill:url(#linear-gradient);}.cls-5{clip-path:url(#clip-path);}.cls-19,.cls-6{opacity:0.5;}.cls-6{mix-blend-mode:soft-light;}.cls-7{fill:#fcfdfe;}.cls-8{clip-path:url(#clip-path-2);}.cls-9{fill:url(#linear-gradient-2);}.cls-10{fill:#beb8f2;}.cls-11{fill:url(#linear-gradient-3);}.cls-12{clip-path:url(#clip-path-3);}.cls-13{fill:url(#linear-gradient-4);}.cls-14{fill:url(#linear-gradient-5);}.cls-15{fill:url(#linear-gradient-6);}.cls-16{fill:#de8bdf;}.cls-17{fill:#c281e8;}.cls-18,.cls-19{fill:#d8dee8;}.cls-19,.cls-23,.cls-28,.cls-32{mix-blend-mode:multiply;}.cls-20{fill:url(#linear-gradient-7);}.cls-21{fill:url(#linear-gradient-8);}.cls-22{fill:url(#linear-gradient-9);}.cls-23,.cls-28,.cls-32{opacity:0.3;}.cls-23{fill:url(#linear-gradient-10);}.cls-24{fill:url(#linear-gradient-11);}.cls-25{fill:url(#linear-gradient-12);}.cls-26{fill:url(#linear-gradient-13);}.cls-27{fill:url(#linear-gradient-14);}.cls-28{fill:url(#linear-gradient-15);}.cls-29{fill:url(#linear-gradient-16);}.cls-30{fill:url(#linear-gradient-17);}.cls-31{fill:url(#linear-gradient-18);}.cls-32{fill:url(#linear-gradient-19);}.cls-33{fill:url(#linear-gradient-20);}.cls-34{fill:url(#linear-gradient-21);}.cls-35{fill:url(#linear-gradient-22);}.cls-36{fill:url(#linear-gradient-23);}</style><linearGradient id="linear-gradient" x1="103.41" y1="605.53" x2="706.28" y2="2189.62" gradientTransform="translate(274.62 79.23) rotate(-3.74)" gradientUnits="userSpaceOnUse"><stop offset="0" stop-color="#aa80f9"/><stop offset="1" stop-color="#6165d7"/></linearGradient><clipPath id="clip-path"><path class="cls-1" d="M827.3,2048.86l194.4-50.07s50.07-145.63-21.79-184.44-44.34-178.67-38.32-254.94c16.35-206.94-207.29-188.13-207.54-455.74-.06-71.18,23.61-206.94-36.4-263.63-68.37-64.59-118.28-1.23-162.24-55.24C486.71,700.39,375.22,670.1,308.76,757c-65.59,85.74,14.11,256.42,212.23,393.6,131,114.52,133,148.8,122.73,232.29-7.22,58.48-63,210.81,16.37,271.64s140,126.56,109.46,192.61C723,1947.61,827.3,2048.86,827.3,2048.86Z"/></clipPath><clipPath id="clip-path-2"><path class="cls-1" d="M1085.21,2347.6l-231.92,72.7S772.34,2315,802.86,2213.23c62.26-207.65-124-247.69-199.44-276.13-113.83-42.89-195.45-130.33-75.08-217.26s-80-252.91-273.82-295.67C64.84,1382.31,29.79,1021,448.63,1073.88c250.14,31.59,288.57,274.25,337.11,392.18s232,71.44,216.7,238.88c-13.06,143-84.29,266.66,19.4,329.67S1164,2192.66,1085.21,2347.6Z"/></clipPath><linearGradient id="linear-gradient-2" x1="4156.84" y1="913.3" x2="3672.98" y2="2288.5" gradientTransform="matrix(-0.95, 0.3, 0.3, 0.95, 3944.96, -988.36)" gradientUnits="userSpaceOnUse"><stop offset="0" stop-color="#e38ddd"/><stop offset="1" stop-color="#9571f6"/></linearGradient><linearGradient id="linear-gradient-3" x1="3132.92" y1="1437.7" x2="3644.93" y2="2280.6" gradientTransform="translate(-2540.77 125.15) rotate(1.3)" gradientUnits="userSpaceOnUse"><stop offset="0" stop-color="#ffc444"/><stop offset="1" stop-color="#f36f56"/></linearGradient><clipPath id="clip-path-3"><path class="cls-1" d="M858.86,2473.13l226.12,5.14c13.9-31.72,32.06-90.39-14.92-106-65.31-21.73-63.37-137.71-44-178.17,23.91-50.08,77.21-167.83-23.24-203-83.62-29.29-143.57-31.1-146.16-140S796.77,1672.53,698,1676c-104,3.63-184.82-137.08-271.23-93.48-150.57,76-23.71,319.64,154.3,394.55s72.7,136.66,65.12,225.48c-10.34,121.26,154.65,100.33,196.57,149.37C875.59,2390.35,867.7,2441.78,858.86,2473.13Z"/></clipPath><linearGradient id="linear-gradient-4" x1="2363.66" y1="2647.51" x2="1224.38" y2="1675.65" gradientUnits="userSpaceOnUse"><stop offset="0" stop-color="#444b8c"/><stop offset="1" stop-color="#26264f"/></linearGradient><linearGradient id="linear-gradient-5" x1="-1565.93" y1="3001.67" x2="2632.36" y2="3157.84" gradientTransform="translate(-1589.38 1421.28) rotate(-90)" xlink:href="#linear-gradient-4"/><linearGradient id="linear-gradient-6" x1="832.35" y1="1858.29" x2="2083.73" y2="1858.29" gradientUnits="userSpaceOnUse"><stop offset="0" stop-color="#ff9085"/><stop offset="1" stop-color="#fb6fbb"/></linearGradient><linearGradient id="linear-gradient-7" x1="791.27" y1="2098.37" x2="1330.58" y2="2098.37" gradientTransform="matrix(-1, 0, 0, 1, 3514.57, 0)" gradientUnits="userSpaceOnUse"><stop offset="0" stop-color="#444b8c"/><stop offset="1" stop-color="#3e4177"/></linearGradient><linearGradient id="linear-gradient-8" x1="2403.98" y1="2595.15" x2="2485.73" y2="3078.23" xlink:href="#linear-gradient-4"/><linearGradient id="linear-gradient-9" x1="1159.28" y1="2677.69" x2="1088.87" y2="3118.49" gradientTransform="matrix(-1, 0, 0, 1, 3514.57, 0)" gradientUnits="userSpaceOnUse"><stop offset="0" stop-color="#311944"/><stop offset="1" stop-color="#a03976"/></linearGradient><linearGradient id="linear-gradient-10" x1="791.27" y1="2098.41" x2="1330.57" y2="2098.41" xlink:href="#linear-gradient-7"/><linearGradient id="linear-gradient-11" x1="1090.12" y1="2330.01" x2="1551.25" y2="2330.01" xlink:href="#linear-gradient-7"/><linearGradient id="linear-gradient-12" x1="1387.43" y1="779" x2="1052.75" y2="1970.78" gradientTransform="matrix(-1, 0, 0, 1, 3514.57, 0)" xlink:href="#linear-gradient-3"/><linearGradient id="linear-gradient-13" x1="850.54" y1="1362.53" x2="908.7" y2="1551.29" gradientTransform="matrix(-1, 0, 0, 1, 3514.57, 0)" xlink:href="#linear-gradient-3"/><linearGradient id="linear-gradient-14" x1="2221.65" y1="1224.57" x2="2303.49" y2="1362.79" gradientTransform="matrix(1, 0, 0, 1, 0, 0)" xlink:href="#linear-gradient-9"/><linearGradient id="linear-gradient-15" x1="1578.71" y1="832.71" x2="1244.03" y2="2024.5" gradientTransform="matrix(-1, 0, 0, 1, 3514.57, 0)" xlink:href="#linear-gradient-3"/><linearGradient id="linear-gradient-16" x1="2179.17" y1="1405.44" x2="1365.41" y2="736.61" gradientUnits="userSpaceOnUse"><stop offset="0" stop-color="#ffc444"/><stop offset="0.26" stop-color="#ffc145"/><stop offset="0.46" stop-color="#fdb747"/><stop offset="0.65" stop-color="#fba64a"/><stop offset="0.82" stop-color="#f78f4f"/><stop offset="0.99" stop-color="#f37056"/><stop offset="1" stop-color="#f36f56"/></linearGradient><linearGradient id="linear-gradient-17" x1="2693.75" y1="1399.06" x2="2400.48" y2="1178.09" xlink:href="#linear-gradient-4"/><linearGradient id="linear-gradient-18" x1="953.42" y1="1181.94" x2="1092.88" y2="1433.38" gradientTransform="matrix(-1, 0, 0, 1, 3514.57, 0)" xlink:href="#linear-gradient-4"/><linearGradient id="linear-gradient-19" x1="2382.41" y1="1107.18" x2="2599.5" y2="1632.84" xlink:href="#linear-gradient-4"/><linearGradient id="linear-gradient-20" x1="1284.96" y1="670.54" x2="1246.18" y2="1001.14" xlink:href="#linear-gradient-9"/><linearGradient id="linear-gradient-21" x1="924.45" y1="1330.46" x2="1017.75" y2="1330.46" xlink:href="#linear-gradient-9"/><linearGradient id="linear-gradient-22" x1="2394.72" y1="658.86" x2="2342.89" y2="812.99" xlink:href="#linear-gradient-4"/><linearGradient id="linear-gradient-23" x1="1249.9" y1="715.22" x2="1213.17" y2="807.06" xlink:href="#linear-gradient-9"/></defs><g class="cls-2"><g id="Illustration"><path class="cls-3" d="M2626.88,2858.53c-74.93,77.24-142,122.64-193.3,156.91-500.62,334.27-1072.87,237.92-1249.8,205-285.45-53.12-526.41-90.6-733.44-277.65-470.43-425-447.55-1311.63-88.09-1860.85,42.63-65.12,401.55-597.15,975.05-672.12,14-1.83,24.49-2.88,33.65-3.85,88.72-9.39,638.5-59,1086.78,316.61,64.17,53.76,167.44,150.73,263.2,298.63C3071.08,1562,3072.19,2399.53,2626.88,2858.53Z"/><path class="cls-4" d="M769.55,1847.12c-26.75,57.77-1.25,115.56,23.21,154.45,5.84,0,9.23,1.65,15.12,3.09,53.21,12.94,78.17,6.36,132.27,10.27,11.64.84,46.23-7.83,60.12-12.36l25.77-8.89s45.73-140.52-26.13-179.33-44.34-178.67-38.32-254.94c16.35-206.94-207.29-188.13-207.54-455.74-.06-71.18,23.61-206.94-36.4-263.63-68.37-64.59-118.28-1.23-162.24-55.24C486.71,700.39,375.22,670.1,308.76,757c-65.59,85.74,14.11,256.42,212.23,393.6,131,114.52,133,148.8,122.73,232.29-7.22,58.48-63,210.81,16.37,271.64S800.13,1781.07,769.55,1847.12Z"/><g class="cls-5"><g class="cls-6"><path class="cls-7" d="M912,2017.11l3.95-.49c-2.94-23.54-6.18-47.23-9.66-70.43-25.73-171.78-66.57-334.94-121.38-484.95-46.44-127.11-103.54-246.58-169.72-355.09C562,1018.89,502.61,938.21,438.79,866.35c-44.87-50.52-91.47-96.18-138.52-135.73-8.2-6.89-17-13.49-25.45-19.86-11.29-8.49-23-17.27-33.4-26.84l-2.69,2.93c10.56,9.7,22.33,18.54,33.7,27.09,8.44,6.34,17.17,12.9,25.28,19.73,46.9,39.42,93.36,85,138.1,135.32,63.67,71.68,122.87,152.17,176,239.24,66,108.28,123,227.51,169.37,354.38,54.72,149.75,95.49,312.65,121.18,484.17C905.81,1970,909.05,1993.61,912,2017.11Z"/><path class="cls-7" d="M686.82,1243.55l3.6-1.69c-72.56-154.64-8.85-440.35-8.19-443.22l-3.88-.89C677.69,800.64,613.68,1087.67,686.82,1243.55Z"/><path class="cls-7" d="M851.87,1694l3.77-1.26c-37-110.86-244.57-196.44-246.66-197.3l-1.5,3.69C609.56,1499.93,815.43,1584.82,851.87,1694Z"/><path class="cls-7" d="M867.43,1758.67l3.94-.57c-11-75.5,14.38-184.34,71.42-306.45,2.87-6.14,2.87-6.14,2.77-6.89l-3.95.52,2-.26-1.92-.49c-.15.43-1.23,2.75-2.49,5.43C881.82,1572.77,856.34,1682.41,867.43,1758.67Z"/><path class="cls-7" d="M906,1974.24l3.61-1.67c-35.39-76.23-156.35-106.31-157.57-106.6l-.94,3.87C752.32,1870.13,871.44,1899.76,906,1974.24Z"/><path class="cls-7" d="M918,2017.42c15-66.09,49.46-130,105.35-195.48l-3-2.58c-56.33,66-91.07,130.45-106.21,197.18Z"/><path class="cls-7" d="M472.71,911.93l3.5-1.89c-45.13-83.73-73.14-182.16-82.34-214.51-2.23-7.83-3-10.58-3.47-11.49l-3.57,1.74c.32.7,1.6,5.18,3.21,10.84C399.27,729.07,427.37,827.81,472.71,911.93Z"/><path class="cls-7" d="M566.23,1037.22l2.79-2.84c-63.57-62.57-241.95-60.57-249.51-60.46l.06,4C321.4,977.88,503.85,975.81,566.23,1037.22Z"/></g></g><g class="cls-8"><path class="cls-9" d="M1085.21,2347.6l-231.92,72.7S772.34,2315,802.86,2213.23c62.26-207.65-124-247.69-199.44-276.13-113.83-42.89-183.09-122.7-91.95-217.12,103.11-106.83-63.12-253-257-295.81C64.84,1382.31,29.79,1021,448.63,1073.88c250.14,31.59,288.57,274.25,337.11,392.18s232,71.44,216.7,238.88c-13.06,143-84.29,266.66,19.4,329.67S1164,2192.66,1085.21,2347.6Z"/><g class="cls-6"><path class="cls-10" d="M991.58,2400.59l-5.09.63c-.39-3.16-40.39-318.81-174.4-619.77C688.63,1504.18,457.8,1183,59.22,1227.52l-.57-5.1c177.43-19.81,336.93,29.93,474.09,147.85,109.56,94.2,205.14,231.87,284.08,409.19C951.11,2081.11,991.19,2397.43,991.58,2400.59Z"/><path class="cls-10" d="M587.92,1422l-5,.92c-30.55-168-164.16-378.42-165.5-380.52l4.32-2.77C423,1041.77,557.19,1253,587.92,1422Z"/><path class="cls-10" d="M494.38,1346c-197-51-335.55,46.51-336.92,47.5l-3-4.16c1.4-1,141.79-100,341.21-48.31Z"/><path class="cls-10" d="M889,1983c-127.1-213.68-458.8-171.89-462-171.21l-1.38-4.93c3.07-1,339.56-42.06,467.79,173.52Z"/><path class="cls-10" d="M859.83,1884.69l-5.11.51C839.09,1727.32,967.9,1575,969.2,1573.42l3.9,3.34C971.81,1578.27,844.42,1729,859.83,1884.69Z"/><path class="cls-10" d="M979.1,2351.68c-35.22-87.63-185.8-118.56-187.31-118.87l1-5c6.3,1.25,154.81,31.77,191.07,122Z"/><path class="cls-10" d="M970.63,2276.81l-5.08.69c-10-74,71.62-185.53,98.45-222.18,3.79-5.18,7.07-9.65,7.49-10.56l4.68,2.1c-.58,1.3-2.75,4.28-8,11.49C1041.61,2094.58,960.89,2204.86,970.63,2276.81Z"/></g></g><path class="cls-11" d="M865.69,2406.35l2.61,1.21c51.58,23.75,112.15,40.59,183.35,45.13l41.83-.28c12.56-32.76,18.64-66.16-23.42-80.16-65.31-21.73-63.37-137.71-44-178.17,23.91-50.08,77.21-167.83-23.24-203-83.62-29.29-143.56-31.1-146.16-140S796.77,1672.53,698,1676c-104,3.63-184.82-137.08-271.23-93.48-150.57,76-23.71,319.64,154.3,394.55s72.7,136.66,65.12,225.48c-10.34,121.26,154.65,100.33,196.57,149.37C856.93,2368.52,863.49,2387.55,865.69,2406.35Z"/><g class="cls-12"><g class="cls-6"><path class="cls-7" d="M966.14,2440l4.83-.84c-61.22-353.06-293.5-674.68-606.18-839.35l-2.28,4.34C673.87,1768.1,905.17,2088.38,966.14,2440Z"/><path class="cls-7" d="M916.27,2250.35l4.9.13c3.81-140.77,127.3-247.23,128.55-248.29l-3.17-3.74C1045.28,1999.52,920.15,2107.36,916.27,2250.35Z"/><path class="cls-7" d="M953.1,2375.34l4.38-2.21c-64.36-127.44-323.19-152.24-325.8-152.48l-.44,4.88C633.82,2225.77,890,2250.32,953.1,2375.34Z"/><path class="cls-7" d="M750.52,1940.7l4.55-1.83c-42.24-105.08,29.88-263.07,30.62-264.66l-4.45-2.06C780.5,1673.75,707.5,1833.67,750.52,1940.7Z"/><path class="cls-7" d="M598.72,1771.16l2.68-4.11c-108.08-70.53-279.32-37.82-281-37.48l.95,4.81C323,1734,492.33,1701.72,598.72,1771.16Z"/></g></g><path class="cls-13" d="M2085.82,623.29V3004.12c0,35.6-30.42,43.26-64.91,44.39L838.73,3109.65l-17.91.58A64.55,64.55,0,0,1,754,3045.44V582a64.56,64.56,0,0,1,66.87-64.8l24.3.8,1186.51,92.28C2066.13,611.38,2085.82,587.69,2085.82,623.29Z"/><path class="cls-14" d="M2122.65,623.29V3004.12c0,35.6-28.18,65.65-62.67,66.78L857.65,3110.23a64.55,64.55,0,0,1-66.87-64.79V582a64.56,64.56,0,0,1,66.87-64.8L2060,556.51C2094.47,557.64,2122.65,587.69,2122.65,623.29Z"/><path class="cls-15" d="M2083.73,754.18V2959.73c0,33.24-26.33,61.26-58.55,62.27L894.6,3057.52a60.22,60.22,0,0,1-62.25-60.45V719.65a60.38,60.38,0,0,1,62.25-60.59l1130.58,33C2057.4,693,2083.73,720.94,2083.73,754.18Z"/><path class="cls-16" d="M1490.4,610.94a21.72,21.72,0,0,1-22.33,22c-12.34-.37-22.35-10.86-22.35-23.42a21.72,21.72,0,0,1,22.35-22A23.4,23.4,0,0,1,1490.4,610.94Z"/><path class="cls-3" d="M1979.19,1766.24l-1036-1.28a55.65,55.65,0,0,1-55.46-55.74V770.49a53.75,53.75,0,0,1,55.46-54.13l1036,28.74c29,.81,52.44,25.67,52.44,55.52v911.62C2031.63,1742.1,2008.17,1766.28,1979.19,1766.24Z"/><path class="cls-17" d="M1659.38,1658.06l-384.5-1.54a9.23,9.23,0,0,1-9.14-9.28v-113a9.11,9.11,0,0,1,9.14-9.18l384.5,2.83a9.13,9.13,0,0,1,8.95,9.22V1649A9,9,0,0,1,1659.38,1658.06Z"/><polygon class="cls-18" points="1940.09 1223.24 1014.66 1209.07 1014.66 842.5 1940.09 865.27 1940.09 1223.24"/><polygon class="cls-18" points="1940.09 1418.78 1014.66 1409.3 1014.66 1279.92 1940.09 1292.43 1940.09 1418.78"/><path class="cls-3" d="M1979.19,2930.34l-1036,30a53.68,53.68,0,0,1-55.46-54.07V1967.58a55.75,55.75,0,0,1,55.46-55.81l1036-2.57c29-.07,52.44,24.08,52.44,53.94v911.61C2031.63,2904.61,2008.17,2929.5,1979.19,2930.34Z"/><path class="cls-18" d="M1835.28,2588.17,1093.83,2603a17.7,17.7,0,0,1-18.06-17.84V2046.34a18.25,18.25,0,0,1,18.06-18.3l741.45-4a17.49,17.49,0,0,1,17.37,17.74V2570A18,18,0,0,1,1835.28,2588.17Z"/><path class="cls-17" d="M1659.38,2824.36l-384.5,10a8.9,8.9,0,0,1-9.14-9v-113a9.44,9.44,0,0,1,9.14-9.45l384.5-8.72a8.81,8.81,0,0,1,8.95,8.95V2815A9.35,9.35,0,0,1,1659.38,2824.36Z"/><path class="cls-3" d="M1468.07,2351.62a16.66,16.66,0,0,1-10.39-3.55l-405.82-309.43c-9.22-7-11.95-21.8-6.08-33s18.09-14.51,27.31-7.47l395.35,302L1885,1994c9-6.62,20.63-3,26,8.1s2.35,25.44-6.65,32.07l-426.38,314A17,17,0,0,1,1468.07,2351.62Z"/><path class="cls-19" d="M2122.65,769.85a885.81,885.81,0,0,0-144.74,30.27c-85.92,25.63-301.31,89.89-416.83,271-134.43,210.76-59.09,463-40.92,523.79,60.16,201.41,211.83,380.35,298.72,482.87,101.83,120.14,146,143.37,155.5,219.95,15.26,122.76-83.31,182.85-89.09,377.91-1.16,39.06-2.29,93.13,18.62,157.7,40.92,126.36,136,199.51,182.65,230.48Z"/><path class="cls-20" d="M2262.84,1654.38c99.45-48.57,293.44,127.36,387.84,295.87,37.63,67.15,81.79,146,71,239.72-19.22,166.17-203.55,311.92-457.26,360.58q-10.71-38.27-21.43-76.52c27.74-28.9,69.23-70.61,122.25-118.4,81.44-73.41,98.17-78.31,102.08-101.48,12.79-75.92-182.44-139.47-251.88-273C2155.7,1866.43,2186.43,1691.69,2262.84,1654.38Z"/><path class="cls-21" d="M2393.5,2989.92s-16.33,40.28-8.21,56.06c8.53,16.56,33.17,11.63,102.55,14.24,71,2.67,87.13,8.37,90,1.24,5.68-14.27-49.53-59.57-114.11-71.54A196.32,196.32,0,0,0,2393.5,2989.92Z"/><path class="cls-22" d="M2408.13,2929.7l38.63,60.22s-17.8,17.57-48.05,11l-42.5-57Z"/><path class="cls-23" d="M2215.4,1981.19c-59.7-114.76-29-289.5,47.44-326.81,20-9.78,43.94-10.33,70.06-3.79-13.75,39.72-11,68.44-4.24,88.78,30.27,90.72,161.15,80.4,202,183.66,25.85,65.28-15.25,97.67,21.43,150,38,54.22,100.18,45.13,119.38,97.95,14.31,39.36-13.9,61.74-3.06,94.89,3,9.24,9,18.52,19,27.33-67.23,120.93-223.7,219.12-423,257.35q-10.71-38.27-21.43-76.52c27.74-28.9,69.23-70.61,122.25-118.4,81.44-73.41,98.17-78.31,102.08-101.48C2480.07,2178.23,2284.84,2114.68,2215.4,1981.19Z"/><path class="cls-24" d="M2330.7,1690.39c-4.3,173.93-1.89,362,10.71,562.19a6424.15,6424.15,0,0,0,83,701.42l-49.08,15.62C2207.1,2805.67,2156.74,2661.44,2143,2557.7c-9.75-73.34,5-79.64-8.15-171.43-25-174.79-90.38-234.65-136.27-398.28-17.22-61.42-36.39-154.2-35.16-275.15Z"/><path class="cls-25" d="M2451.24,1378.85c-3,.7-16.32,5.12-21.56,60.53-12.65,133.63,56.92,187.73,39.79,260.2-16.44,69.55-100.31,103.3-186.63,138-57.68,23.21-236.1,95-339.86,14.27-43.67-34-48.45-75-79.6-225.78-79.15-383.11-109.82-416-76.53-498.95,57.17-142.43,210.24-201.41,235.71-211.22,271.55-104.63,592.23,87.68,718.94,308.61,16.69,29.09,116.34,202.83,46.32,285.24-42.35,49.85-139.69,57.9-203.92,23.91C2498.07,1488.27,2479.84,1372.3,2451.24,1378.85Z"/><path class="cls-26" d="M2748,1480.2a6,6,0,0,0,2.53-.56,6.13,6.13,0,0,0,3-8.11c-2.32-5.09-58.38-125.39-187.91-172.87a6.12,6.12,0,0,0-4.21,11.5c124.59,45.66,180.43,165.25,181,166.45A6.12,6.12,0,0,0,2748,1480.2Z"/><path class="cls-27" d="M2239.49,1342.79c.72-5.53,6.32-43.7,38.19-55.93,15.86-6.08,43.72-7.86,54.57,9.55,6.81,10.93,6.21,28.31-2.73,36.83-11.31,10.78-26.06-2-46.38,6.82-24.43,10.64-28.39,40.16-36.83,38.19C2239.68,1376.71,2237.6,1357.39,2239.49,1342.79Z"/><path class="cls-28" d="M1964.4,1078.18c17.13,46.66-34.29,87.09-12.25,137.75,31.59,72.6,157.14,35.34,202,107.13,53.2,85.1-68.62,224.67-18.36,272.44,22.9,21.77,49.36-6.11,116.32,9.18,95.35,21.78,124,97.14,168.36,85.71,13.94-3.59,30.85-16.25,45.08-55.24,6.2,21.63,9.15,42.17,3.89,64.43-16.44,69.55-100.31,103.3-186.63,138-57.68,23.21-236.1,95-339.86,14.27-43.67-34-48.45-75-79.6-225.78-79.15-383.11-109.82-416-76.53-498.95,18.16-45.23,46-82,76.32-111.5C1928.57,1030.1,1955.42,1053.75,1964.4,1078.18Z"/><path class="cls-29" d="M2237.5,1306.83c-7.32,6.66-89.48,94.89-178.84,72.55-77.83-19.46-125.61-95.13-134-158.8-19.9-151.42,177.38-278.52,153.06-309.17-14.31-18-90.48,15.43-143.87,49-43.79,27.51-227.26,142.8-222.34,336.11.5,19.62,3.66,143.93,85.93,206,111.12,83.79,282.83,81.55,466.28-121Z"/><path class="cls-30" d="M2638.59,1121.3l-88.45,282.55a22.89,22.89,0,0,1-21,16l-115.66,16.81a22.88,22.88,0,0,1-23.17-27.72l78-289.21a22.86,22.86,0,0,1,21.65-18L2616,1091.59A22.88,22.88,0,0,1,2638.59,1121.3Z"/><path class="cls-31" d="M2634.35,1130.59l-85.85,274.23a22.2,22.2,0,0,1-20.41,15.56l-101.64,16.32a22.21,22.21,0,0,1-22.49-26.9l76.18-280.86a22.22,22.22,0,0,1,21-17.49l111.3-9.69A22.21,22.21,0,0,1,2634.35,1130.59Z"/><path class="cls-32" d="M2404,1409.8l72.78-268.33a96.58,96.58,0,0,1,20.53,13.07c28.67,24.59,45.09,69.09,35.63,104.68-12.07,45.4-58.39,46.8-64.8,84.57-5,29.57,19,60.87,38.78,80l-80.43,12.91A22.21,22.21,0,0,1,2404,1409.8Z"/><path class="cls-33" d="M2302.48,888.72a32.52,32.52,0,0,0,23.57,40.55c21.75,5.24,48.24,12.5,59.67,19,21,12-63.95-1.86-142.09-3.69-48.78-1.15-85.24-6.62-105.74-10.58a5.42,5.42,0,0,1-.61-10.48c19.53-6.35,51.28-15.7,78.11-19.07,33.21-4.18,68.83-77.48,68.83-77.48l28.47,25.86Z"/><path class="cls-34" d="M2585.22,1322.62l-5.4-8.83a37.81,37.81,0,0,0-41.22-28l-28.38,3.5a15.29,15.29,0,0,0-13.07,18.31c2.64,12.67,9.44,27.82,26.88,26.65,29.62-2,48.56,41.17,48.56,41.17l11.37-16A33.45,33.45,0,0,0,2585.22,1322.62Z"/><path class="cls-35" d="M2365.92,851.15c24.55-3.63,52-24.27,51.51-41.32-.73-23.44-54.31-36.28-81.36-42.76s-38.64-4.15-46.41,1.77c-7.94,6-13.15,16.85-14.86,26.18-.93,5.08-1,12.08-.1,26,.77,12.37.54,11.82.86,15.48.77,8.77,3.17,24.21,11.72,45.6a111.06,111.06,0,0,1,14.24-13.17c2.29-1.77,11.36-8.62,21.67-12.78C2340.89,849,2351,853.36,2365.92,851.15Z"/><path class="cls-36" d="M2274.22,858.27s1.59,34.2,33.82,49.21c28.85,13.44,67.14-46.8,56.61-69.8-3.51-7.68-14.4-16-25.55-18.61-6.59-1.53-9.82-.21-20.53-2.92-9.88-2.49-11.81-4.79-15.62-4-4.77,1-10.86,6.39-15.41,27.64-2.36-8.29-7.61-13.85-13.3-14.19a10.88,10.88,0,0,0-5.69,1.58C2260.75,832.17,2262.27,844.85,2274.22,858.27Z"/></g></g></svg>